<svg width="96" height="96" viewBox="0 0 96 96" fill="none" xmlns="http://www.w3.org/2000/svg">
  <rect width="96" height="96" rx="22" fill="#FFF7E8"/>
  <rect x="16" y="16" width="64" height="64" rx="16" fill="#F5A623"/>
  <path d="M33 34C36 29 42 26 49 26C59 26 66 33 66 43C66 56 55 67 38 70L35 59C44 58 51 55 54 50C51 52 47 53 43 53C35 53 29 48 29 40C29 38 30 36 33 34ZM47 44C51 44 54 41 54 38C54 35 51 32 47 32C43 32 40 35 40 38C40 41 43 44 47 44Z" fill="#FFFFFF"/>
  <path d="M30 70H66" stroke="#2E318E" stroke-width="5" stroke-linecap="round"/>
</svg>
